<svg xmlns="http://www.w3.org/2000/svg" xmlns:xlink="http://www.w3.org/1999/xlink" width="20.384" height="16" viewBox="0 0 20.384 16"><defs><clipPath id="a"><rect width="20.384" height="16" fill="#e41749"/></clipPath></defs><g transform="translate(-1650.237 -43)"><rect width="19" height="14" transform="translate(1651 44)" fill="#fff"/><g transform="translate(1650.237 43)"><g clip-path="url(#a)"><path d="M20.332,2.278a2.82,2.82,0,0,0-.584-1.236,2.431,2.431,0,0,0-.192-.213,2.821,2.821,0,0,0-2-.829H2.828a2.825,2.825,0,0,0-2,.829,2.483,2.483,0,0,0-.192.213A2.786,2.786,0,0,0,.055,2.278,2.735,2.735,0,0,0,0,2.828V13.173A2.811,2.811,0,0,0,.234,14.3a2.771,2.771,0,0,0,.594.876c.063.063.126.121.195.179a2.825,2.825,0,0,0,1.8.65H17.557a2.807,2.807,0,0,0,1.8-.652,2.442,2.442,0,0,0,.195-.176,2.83,2.83,0,0,0,.6-.876v0a2.8,2.8,0,0,0,.231-1.12V2.828a2.906,2.906,0,0,0-.053-.55M1.852,1.852a1.366,1.366,0,0,1,.976-.405H17.557a1.359,1.359,0,0,1,1.1.55l-7.72,6.728a1.133,1.133,0,0,1-1.489,0L1.731,1.994a1.044,1.044,0,0,1,.121-.142M1.447,13.173V3.491L7.033,8.364,1.449,13.233a.413.413,0,0,1,0-.06m16.11,1.381H2.828a1.362,1.362,0,0,1-.684-.181L8.035,9.238l.55.478a2.448,2.448,0,0,0,3.217,0l.55-.478,5.889,5.134a1.364,1.364,0,0,1-.684.181m1.381-1.381a.431.431,0,0,1,0,.06L13.351,8.367l5.587-4.874Z" fill="#e41749"/></g></g></g></svg>