<svg xmlns="http://www.w3.org/2000/svg" width="271.268" height="51.466" viewBox="0 0 271.268 51.466"><g transform="translate(-688 388)"><path d="M3.744-18.2v2.626H22.308V-18.2ZM1.586-3.068V-.312h22.88V-3.068ZM41.392-19.11H36.374v-2.574h-2.34v2.574H29.042V-17h12.35ZM38.4-12.09c.52-1.066,1.092-2.678,1.664-4.134l-2.288-.52a30.964,30.964,0,0,1-1.3,4.16Zm-4.654-.546A16.042,16.042,0,0,0,32.6-16.614l-2,.442a16.954,16.954,0,0,1,1.014,4.03Zm4.316,6.994v4.186H32.292V-5.642Zm-8.008,7.7h2.236V.65h5.772v1.3H40.43V-7.774H30.056ZM28.418-9.776H41.73v-2.21H28.418Zm22.1-10.634-.39.1H42.666V2.054h2.366v-20.1h4.134c-.728,2.028-1.742,4.758-2.678,6.786C48.88-9.1,49.556-7.2,49.556-5.694c0,.936-.182,1.612-.7,1.924a2.125,2.125,0,0,1-1.04.286,14.412,14.412,0,0,1-1.768-.052,5.784,5.784,0,0,1,.65,2.392A18.66,18.66,0,0,0,48.828-1.2,4.1,4.1,0,0,0,50.57-1.82c.936-.624,1.326-1.846,1.326-3.588,0-1.768-.572-3.8-2.964-6.162,1.118-2.262,2.366-5.252,3.38-7.722ZM66.352-10.27h2.34v-5.694h7.774v3.432H78.7v-5.1H68.692v-1.326h8.346V-20.8H58.11v1.846h8.242v1.326H56.524v5.1h2.158v-3.432h7.67Zm3.536-.52h5.98v-1.4h-5.98Zm0-4v1.4h5.33v-1.4Zm-10.5,4h5.824v-1.4H59.384Zm.52-4v1.4h5.278v-1.4ZM61.126-3.276V-4.758h5.1v1.482Zm5.1-4.524v1.534h-5.1V-7.8Zm7.852,1.534H68.536V-7.8h5.538Zm-5.538,2.99V-4.758h5.538v1.482ZM70.46,0c-1.612,0-1.924-.156-1.924-1.066V-1.56h7.9V-9.49H58.812V-.312h2.314V-1.56h5.1v.494c0,2.34.884,2.938,4.082,2.938H76c2.626,0,3.328-.806,3.64-3.952a5.045,5.045,0,0,1-2.054-.78C77.428-.442,77.168,0,75.868,0Zm21.5-13.988h-7.8v1.872h7.8v-.338A9.088,9.088,0,0,1,93.7-10.92c2.73-1.82,3.276-4.654,3.276-6.994v-.962h3.744V-14.9c0,2.132.546,2.73,2.34,2.73h1.664c1.508,0,2.106-.806,2.262-3.9a5.433,5.433,0,0,1-1.976-.884c-.052,2.392-.156,2.73-.546,2.73h-1.014c-.364,0-.416-.1-.416-.7v-6.11H94.692v3.094a5.942,5.942,0,0,1-2.73,5.434Zm-7.8,5.356h7.8v-1.9h-7.8Zm7.722-12.324H84.266v1.9h7.618Zm.988,3.432H82.94V-15.6h9.932ZM89.83-5.07v3.744H86.19V-5.07Zm2.106-1.95H84.11V1.716h2.08V.624h5.746ZM104-10.79l-.442.078H93.184V-8.5h9.308A12.821,12.821,0,0,1,99.5-4.134a13.8,13.8,0,0,1-2.99-4.342L94.354-7.8a18.408,18.408,0,0,0,3.38,5.148A17.781,17.781,0,0,1,91.962-.1a8.689,8.689,0,0,1,1.3,2.132,19.5,19.5,0,0,0,6.266-3.042,17.435,17.435,0,0,0,5.954,3.042,9.465,9.465,0,0,1,1.56-2.08A17.236,17.236,0,0,1,101.348-2.6a16.829,16.829,0,0,0,4.212-7.592ZM119.652-9c-.468-.78-2.444-3.9-3.146-4.862v-.806h3.146V-16.9h-3.146v-4.888H114.14V-16.9H110.6v2.236h3.354c-.754,3.354-2.288,7.28-3.926,9.334a13.7,13.7,0,0,1,1.2,2.392,26.086,26.086,0,0,0,2.912-6.474V2.054h2.366V-10.868c.65,1.3,1.378,2.7,1.716,3.562Zm14.248.39v-2.21h-5.746v-4.108h4.966v-2.21h-4.966v-4.654h-2.366v4.654h-2.236c.234-.988.442-2,.6-3.068l-2.236-.364a19.4,19.4,0,0,1-2.548,7.93,14.26,14.26,0,0,1,1.924,1.222,15.172,15.172,0,0,0,1.612-3.51h2.886v4.108h-5.954v2.21h4.706a18.385,18.385,0,0,1-6.266,7.566A9.288,9.288,0,0,1,119.886.832a20.651,20.651,0,0,0,5.9-7.41V2.054h2.366V-6.76A24.227,24.227,0,0,0,132.86.624a9.46,9.46,0,0,1,1.768-1.9,19.824,19.824,0,0,1-5.2-7.332Zm11.778-.416h4.55v-2.34H138.944v2.34h4.316v6.968c-1.976.364-3.77.7-5.174.936l.7,2.444c3.328-.728,7.982-1.742,12.3-2.73L150.9-3.588c-1.742.364-3.51.728-5.226,1.04Zm9.256-11.336a20.364,20.364,0,0,1,3.51,3.172l1.69-1.508a19.74,19.74,0,0,0-3.614-2.99Zm6.11,5.538v-2.366h-7.462c-.052-1.456-.078-2.99-.052-4.5h-2.6c0,1.508.052,3.016.1,4.5H138.008v2.366H151.19c.65,9.36,2.7,16.926,6.994,16.926,2.158,0,3.016-1.274,3.432-5.954a6.124,6.124,0,0,1-2.132-1.378c-.156,3.38-.468,4.784-1.092,4.784-2.262,0-4.082-6.188-4.654-14.378Zm10.14.884a25.247,25.247,0,0,0,5.538-5.512,26.036,26.036,0,0,0,5.85,5.512ZM170.69-11.7h12.168v-2.028a32.624,32.624,0,0,0,4.6,2.7,11.77,11.77,0,0,1,1.534-2.184,26.137,26.137,0,0,1-11.128-8.58h-2.5a26.294,26.294,0,0,1-10.634,8.944,8.808,8.808,0,0,1,1.43,1.976,32,32,0,0,0,4.524-2.7Zm-4.472,4.966h6.448A44.271,44.271,0,0,1,170.248-1.3l-3.848.13.312,2.366c4.42-.182,11.024-.468,17.212-.78a17.748,17.748,0,0,1,1.144,1.69l2.21-1.378a33.085,33.085,0,0,0-6.032-6.682l-2.08,1.118a37.9,37.9,0,0,1,3.016,3.094c-3.172.13-6.4.26-9.282.364.936-1.664,1.9-3.614,2.756-5.356h11.908V-9H166.218ZM203.242-7.2c-.6-.546-2.756-2.418-3.978-3.406a24.026,24.026,0,0,0,3.224-5.59l-1.352-.91-.416.078h-1.794v-4.784h-2.392v4.784h-3.926v2.21h6.812A21.427,21.427,0,0,1,191.7-6.864a11.418,11.418,0,0,1,1.2,2.236,22.908,22.908,0,0,0,3.64-2.912V2.054h2.392V-8.294c1.066,1.066,2.236,2.314,2.834,3.068Zm7.228,6.136V-11.258h5.252V-13.6H210.47v-8.008H208V-13.6h-5.252v2.34H208V-1.066h-6.292V1.326h14.56V-1.066Z" transform="translate(743 -353.267)" fill="#fff"/><g transform="translate(-314 -193)"><path d="M47.181,25.733c0-3.7-5.563-6.548-14.291-7.716l1.293-5.2-4.124-.48L34.507,0,14.1,15.672l6.505.757-.671,1.094C8.027,18.07,0,21.292,0,25.733c0,3.7,5.562,6.547,14.291,7.715L13,38.65l4.124.48L12.675,51.465l20.41-15.672-6.5-.757.67-1.094c11.9-.547,19.931-3.769,19.931-8.21M18.115,14.966,31.839,4.745l-4.021,9.089,4.915-.015-1.008,4.054a72.675,72.675,0,0,0-8.135-.434q-1.207,0-2.37.035l1.974-2.5ZM10.973,30.631c-2.815-1.272-4.366-3.011-4.366-4.9s1.55-3.626,4.366-4.9c3.122-1.41,7.485-2.156,12.617-2.156.135,0,.268,0,.4,0a38.44,38.44,0,0,1,8.5.923,20.665,20.665,0,0,1,3.712,1.23c2.815,1.272,4.366,3.011,4.366,4.9s-1.55,3.626-4.366,4.9c-3.122,1.41-7.485,2.156-12.617,2.156-.135,0-.267,0-.4,0a38.44,38.44,0,0,1-8.5-.923,20.661,20.661,0,0,1-3.712-1.23M29.066,36.5,15.342,46.72l4.021-9.089-4.915.015,1.008-4.054a72.677,72.677,0,0,0,8.135.434q1.208,0,2.37-.035l-1.975,2.5Z" transform="translate(1002 -195)" fill="#fff"/><path d="M36.216,63.1h.32q.56,0,.56.72v4.721l-3.521-5.722h-1.52v.28h.32q.56,0,.56.72v5.522q0,.72-.56.72h-.32v.28h2.081v-.28h-.32q-.561,0-.56-.72v-5.2l3.8,6.2h.36V63.819q0-.72.6-.72h.28v-.28H36.216Z" transform="translate(981.157 -235.847)" fill="#fff"/><path d="M54.433,63.1h.36q.6,0,.6.72v5.522q0,.72-.6.72h-.36v.28h2.841v-.28h-.36q-.6,0-.6-.72V63.819q0-.72.6-.72h.36v-.28H54.433Z" transform="translate(966.604 -235.847)" fill="#fff"/><path d="M72.283,69.54a1.816,1.816,0,0,0,.4-1.2,1.756,1.756,0,0,0-.4-1.16,2.114,2.114,0,0,0-1.361-.72v-.04a1.737,1.737,0,0,0,1.16-.64,1.71,1.71,0,0,0,.36-1.121,1.817,1.817,0,0,0-.36-1.12,2.114,2.114,0,0,0-1.72-.72H67.081v.28h.32q.56,0,.56.72V69.34q0,.72-.56.72h-.32v.28h3.4a2.174,2.174,0,0,0,1.8-.8m-3.4-5.842a.53.53,0,0,1,.6-.6h.24a1.558,1.558,0,0,1,1.64,1.56,1.669,1.669,0,0,1-.28,1.041,1.364,1.364,0,0,1-1.08.52h-1.12Zm.6,6.362q-.6,0-.6-.72V66.579h.96a1.671,1.671,0,0,1,1.361.64,2.121,2.121,0,0,1,.08,2.361,1.685,1.685,0,0,1-1.361.48Z" transform="translate(958.381 -235.847)" fill="#fff"/><path d="M92.949,67.62h-.24a3.494,3.494,0,0,1-.68,1.721,1.71,1.71,0,0,1-1.4.72h-.6q-.6,0-.6-.72V66.62h.76q.96,0,.96,1.28v.4h.24V64.58h-.24v.4q0,1.281-.96,1.281h-.76V63.819q0-.72.6-.72h.48a1.847,1.847,0,0,1,1.52.64,3.14,3.14,0,0,1,.6,1.56h.2l-.16-2.481H87.627v.28h.32q.56,0,.56.72v5.522q0,.72-.56.72h-.32v.28h5.082Z" transform="translate(945.021 -235.847)" fill="#fff"/><path d="M72.051,28.089l-3.439,2.886h2.612Z" transform="translate(957.385 -213.265)" fill="#fff"/><path d="M56.456,113.7l3.439-2.886H57.284Z" transform="translate(965.289 -267.057)" fill="#fff"/><rect width="47.181" height="51.466" transform="translate(1002 -195)" fill="none"/></g></g></svg>