<svg xmlns="http://www.w3.org/2000/svg" width="102.152" height="111.428" viewBox="0 0 102.152 111.428"><g transform="translate(-1002 195)"><path d="M102.152,55.714c0-8-12.044-14.176-30.94-16.705l2.8-11.263-8.929-1.039L74.71,0,30.519,33.931,44.6,35.57l-1.452,2.369C17.379,39.123,0,46.1,0,55.714c0,8,12.043,14.175,30.94,16.7l-2.8,11.263,8.928,1.04-9.627,26.706L71.633,77.5,57.549,75.858,59,73.489c25.773-1.183,43.152-8.16,43.152-17.775M39.22,32.4,68.935,10.274,60.229,29.954l10.641-.033L68.688,38.7a157.349,157.349,0,0,0-17.612-.94q-2.613,0-5.131.076l4.274-5.422ZM23.758,66.318c-6.1-2.754-9.452-6.52-9.452-10.6s3.357-7.851,9.452-10.6c6.759-3.054,16.205-4.668,27.317-4.668.292,0,.579.005.869.008a83.226,83.226,0,0,1,18.412,2,44.742,44.742,0,0,1,8.037,2.663c6.1,2.754,9.452,6.52,9.452,10.6s-3.357,7.85-9.452,10.6c-6.759,3.054-16.206,4.668-27.318,4.668-.292,0-.578-.005-.869-.008a83.225,83.225,0,0,1-18.412-2,44.733,44.733,0,0,1-8.036-2.663M62.931,79.025,33.216,101.153l8.706-19.679-10.641.032,2.181-8.777a157.352,157.352,0,0,0,17.612.94q2.615,0,5.131-.076l-4.275,5.422Z" transform="translate(1002 -195)" fill="#e41749"/><path d="M41.065,63.425h.693q1.212,0,1.213,1.56V75.207L35.347,62.819H32.055v.606h.693q1.212,0,1.213,1.56V76.94q0,1.559-1.213,1.559h-.693v.607h4.5V78.5h-.693q-1.215,0-1.212-1.559V65.677l8.23,13.428h.779V64.985q0-1.56,1.3-1.56h.606v-.606h-4.5Z" transform="translate(994.219 -210.248)" fill="#e41749"/><path d="M54.433,63.425h.779q1.3,0,1.3,1.56V76.94q0,1.559-1.3,1.559h-.779v.607h6.151V78.5H59.8q-1.3,0-1.3-1.559V64.985q0-1.56,1.3-1.56h.779v-.606H54.433Z" transform="translate(988.785 -210.248)" fill="#e41749"/><path d="M78.344,77.373a3.932,3.932,0,0,0,.866-2.6,3.8,3.8,0,0,0-.866-2.512A4.577,4.577,0,0,0,75.4,70.7v-.087a3.762,3.762,0,0,0,2.512-1.386,3.7,3.7,0,0,0,.779-2.426,3.933,3.933,0,0,0-.779-2.425,4.576,4.576,0,0,0-3.725-1.56h-7.1v.607h.693q1.212,0,1.213,1.559V76.939q0,1.56-1.213,1.56h-.693V79.1h7.364a4.707,4.707,0,0,0,3.9-1.732M70.98,64.724a1.148,1.148,0,0,1,1.3-1.3h.52A3.374,3.374,0,0,1,76.35,66.8a3.613,3.613,0,0,1-.606,2.253,2.952,2.952,0,0,1-2.339,1.126H70.98Zm1.3,13.774q-1.3,0-1.3-1.56V70.961h2.079A3.618,3.618,0,0,1,76,72.348a4.592,4.592,0,0,1,.173,5.111,3.647,3.647,0,0,1-2.946,1.04Z" transform="translate(985.716 -210.248)" fill="#e41749"/><path d="M99.149,73.214h-.52a7.564,7.564,0,0,1-1.473,3.725A3.7,3.7,0,0,1,94.124,78.5h-1.3q-1.3,0-1.3-1.559V71.049h1.646q2.08,0,2.079,2.772v.866h.52V66.631h-.52V67.5q0,2.774-2.079,2.773H91.526V64.985q0-1.56,1.3-1.56h1.04a4,4,0,0,1,3.292,1.386,6.8,6.8,0,0,1,1.3,3.378h.433l-.346-5.371H87.627v.606h.693q1.212,0,1.213,1.56V76.94q0,1.559-1.213,1.559h-.693v.607h11Z" transform="translate(980.728 -210.248)" fill="#e41749"/><path d="M76.058,28.089l-7.446,6.248h5.655Z" transform="translate(985.343 -201.82)" fill="#e41749"/><path d="M56.456,117.061l7.446-6.248H58.248Z" transform="translate(988.294 -221.903)" fill="#e41749"/><rect width="102.151" height="111.428" transform="translate(1002 -195)" fill="none"/></g></svg>