<svg xmlns="http://www.w3.org/2000/svg" width="283.657" height="51.466" viewBox="0 0 283.657 51.466"><g transform="translate(-190.819 388)"><path d="M3.614-18.46v3.406H22.386V-18.46Zm-2.158,15V.1H24.544V-3.458ZM41.34-19.526H36.556V-21.84h-2.99v2.314H28.808v2.678H41.34Zm-3.874,14.4V-1.69H32.6V-5.122Zm-7.722,7.41H32.6V.988h4.862v1.2h3.016V-7.8H29.744ZM37.232-16.77a27.226,27.226,0,0,1-1.066,3.926l2.106.546H31.46L33.9-12.87a13.091,13.091,0,0,0-1.066-3.8l-2.522.52a16.4,16.4,0,0,1,.91,3.848H28.262V-9.49H41.626V-12.3H38.61c.442-1.014.988-2.418,1.534-3.848Zm13-3.874-.468.1H42.432v22.8h3.016v-19.89h3.146c-.624,1.976-1.456,4.628-2.21,6.474,2.08,2.028,2.652,3.9,2.652,5.3,0,.884-.156,1.482-.624,1.768a2.188,2.188,0,0,1-.962.208A14.383,14.383,0,0,1,45.994-3.9a6.892,6.892,0,0,1,.754,3.016,13.451,13.451,0,0,0,2.08-.052,4.374,4.374,0,0,0,1.768-.65c.988-.7,1.4-1.976,1.4-3.874a8.3,8.3,0,0,0-2.6-6.084c1.04-2.21,2.184-5.2,3.094-7.7Zm8.71,4.862h7.072v5.408H69.03v-5.408h7.15v3.224h2.86v-5.278H69.03v-.988h8.112v-2.288H57.98v2.288h8.034v.988h-9.8v5.278h2.73Zm11.076,5.148h5.668v-1.69H70.018Zm0-4.264v1.664h5.07V-14.9Zm-4.94,0H59.956v1.664h5.122Zm-5.616,4.264h5.616v-1.69H59.462Zm2.08,7.176V-4.576h4.316v1.118Zm4.316-4.134v1.144H61.542V-7.592Zm7.67,1.144H68.822V-7.592h4.706Zm-4.706,2.99V-4.576h4.706v1.118ZM70.694-.182c-1.586,0-1.872-.156-1.872-1.118v-.078H76.6V-9.672H58.6V-.234h2.938V-1.378h4.316V-1.3c0,2.73.988,3.484,4.55,3.484h5.46c2.834,0,3.666-.858,4.03-3.978a7.907,7.907,0,0,1-2.574-.988c-.182,2.21-.416,2.6-1.716,2.6ZM91.936-21.216H84.084v2.34h7.852Zm.988,3.484H82.758v2.444H92.924Zm-.936,7.176H83.98v2.314h8.008Zm9.932,2.47a12.329,12.329,0,0,1-2.444,3.51,12.811,12.811,0,0,1-2.522-3.51ZM89.284-1.534H86.528v-2.99h2.756ZM103.87-11l-.52.13H94.2c2.7-1.846,3.224-4.81,3.224-7.254v-.442h2.912v3.146c0,2.574.6,3.38,2.678,3.38h1.508c1.742,0,2.418-.91,2.678-4.134a8.821,8.821,0,0,1-2.522-1.092c-.026,2.262-.13,2.6-.468,2.6h-.65c-.286,0-.338-.078-.338-.806v-5.824H94.51V-18.2a5.843,5.843,0,0,1-2.522,5.33v-1.248H83.98v2.366h8.008v-.988a13.785,13.785,0,0,1,2.158,1.872h-.884v2.782h3.614l-2.652.858a18.082,18.082,0,0,0,2.99,4.5A17.044,17.044,0,0,1,91.962-.494V-6.968H83.9V1.9h2.626V.884h5.434V-.442a13.09,13.09,0,0,1,1.612,2.678A21,21,0,0,0,99.528-.6a18.121,18.121,0,0,0,5.72,2.834,13.323,13.323,0,0,1,2-2.678,17.753,17.753,0,0,1-5.356-2.236,17.543,17.543,0,0,0,4-7.566Zm15.912,2.132c-.416-.754-2.314-3.744-3.068-4.706v-.754h2.964v-2.86h-2.964v-4.836H113.7v4.836h-3.38v2.86h3.2A25.907,25.907,0,0,1,109.8-5.538a18.812,18.812,0,0,1,1.456,3.12A22.691,22.691,0,0,0,113.7-7.852V2.236h3.016V-9.724c.52,1.092,1.014,2.21,1.3,2.938Zm14.352.468V-11.18h-5.512v-3.562h4.862v-2.782h-4.862V-22H125.58v4.472h-1.612c.208-.884.364-1.794.52-2.73l-2.834-.494c-.39,2.912-1.144,5.8-2.444,7.618a15.973,15.973,0,0,1,2.418,1.534,15.417,15.417,0,0,0,1.534-3.146h2.418v3.562h-5.694V-8.4h4.29a17.055,17.055,0,0,1-6.006,7.1,14.908,14.908,0,0,1,2.08,2.366,19.228,19.228,0,0,0,5.33-6.526v7.7h3.042v-7.93a22.134,22.134,0,0,0,4,6.578,13.138,13.138,0,0,1,2.236-2.418,19.677,19.677,0,0,1-4.81-6.864Zm11.752-.234h4.16v-2.99H138.892v2.99h3.926v6.266c-1.872.312-3.588.572-4.914.78l.858,3.12c3.354-.728,7.93-1.664,12.194-2.6l-.234-2.756c-1.586.312-3.25.624-4.836.91Zm15.262-5.954V-17.6H158.7l1.768-1.534a19.42,19.42,0,0,0-3.406-2.886l-2.054,1.69a18.406,18.406,0,0,1,3.042,2.73h-4.108c-.052-1.4-.052-2.86-.026-4.29h-3.328c0,1.43.026,2.886.078,4.29H137.9v3.016h12.922c.624,9.152,2.574,16.848,7.02,16.848,2.47,0,3.51-1.2,3.978-6.11a8.7,8.7,0,0,1-2.7-1.82c-.13,3.3-.442,4.68-.988,4.68-1.9,0-3.484-6.006-4.03-13.6Zm10.868.364a23.628,23.628,0,0,0,4.758-4.81,25.3,25.3,0,0,0,4.992,4.81Zm-1.274,2.834h12.142v-2.054a31.418,31.418,0,0,0,4.368,2.522,16.026,16.026,0,0,1,2-2.834,23.783,23.783,0,0,1-11-8.242h-3.224a25.818,25.818,0,0,1-10.5,8.71,12.078,12.078,0,0,1,1.82,2.6,30.021,30.021,0,0,0,4.394-2.6Zm-4.6,5.018h6.032A49.924,49.924,0,0,1,170.2-1.664l-3.926.13.416,3.016c4.42-.208,10.842-.468,16.952-.806a13.785,13.785,0,0,1,1.04,1.612L187.564.546a34.967,34.967,0,0,0-5.954-6.682l-2.73,1.43a30.989,30.989,0,0,1,2.548,2.652c-2.652.1-5.33.208-7.826.286.78-1.456,1.638-3.068,2.392-4.6h11.648V-9.23h-21.5Zm37.31-.962c-.546-.52-2.548-2.314-3.8-3.328a25.236,25.236,0,0,0,3.068-5.564l-1.742-1.118-.546.13h-1.17V-22H196.2v4.784H192.5V-14.4h6.266a19.421,19.421,0,0,1-7.254,7.254,12.392,12.392,0,0,1,1.456,2.938,21.514,21.514,0,0,0,3.224-2.5v8.97h3.068v-9.8c.884.962,1.768,2,2.314,2.73Zm7.488,5.824v-9.516h4.914v-2.99h-4.914v-7.774h-3.172v7.774h-4.94v2.99h4.94v9.516H201.76V1.508h14.716V-1.508Z" transform="translate(258 -353)" fill="#030303"/><g transform="translate(-811.181 -193)"><path d="M47.181,25.733c0-3.7-5.563-6.548-14.291-7.716l1.293-5.2-4.124-.48L34.507,0,14.1,15.672l6.505.757-.671,1.094C8.027,18.07,0,21.292,0,25.733c0,3.7,5.562,6.547,14.291,7.715L13,38.65l4.124.48L12.675,51.465l20.41-15.672-6.5-.757.67-1.094c11.9-.547,19.931-3.769,19.931-8.21M18.115,14.966,31.839,4.745l-4.021,9.089,4.915-.015-1.008,4.054a72.675,72.675,0,0,0-8.135-.434q-1.207,0-2.37.035l1.974-2.5ZM10.973,30.631c-2.815-1.272-4.366-3.011-4.366-4.9s1.55-3.626,4.366-4.9c3.122-1.41,7.485-2.156,12.617-2.156.135,0,.268,0,.4,0a38.44,38.44,0,0,1,8.5.923,20.665,20.665,0,0,1,3.712,1.23c2.815,1.272,4.366,3.011,4.366,4.9s-1.55,3.626-4.366,4.9c-3.122,1.41-7.485,2.156-12.617,2.156-.135,0-.267,0-.4,0a38.44,38.44,0,0,1-8.5-.923,20.661,20.661,0,0,1-3.712-1.23M29.066,36.5,15.342,46.72l4.021-9.089-4.915.015,1.008-4.054a72.677,72.677,0,0,0,8.135.434q1.208,0,2.37-.035l-1.975,2.5Z" transform="translate(1002 -195)" fill="#e41749"/><path d="M36.216,63.1h.32q.56,0,.56.72v4.721l-3.521-5.722h-1.52v.28h.32q.56,0,.56.72v5.522q0,.72-.56.72h-.32v.28h2.081v-.28h-.32q-.561,0-.56-.72v-5.2l3.8,6.2h.36V63.819q0-.72.6-.72h.28v-.28H36.216Z" transform="translate(981.157 -235.847)" fill="#e41749"/><path d="M54.433,63.1h.36q.6,0,.6.72v5.522q0,.72-.6.72h-.36v.28h2.841v-.28h-.36q-.6,0-.6-.72V63.819q0-.72.6-.72h.36v-.28H54.433Z" transform="translate(966.604 -235.847)" fill="#e41749"/><path d="M72.283,69.54a1.816,1.816,0,0,0,.4-1.2,1.756,1.756,0,0,0-.4-1.16,2.114,2.114,0,0,0-1.361-.72v-.04a1.737,1.737,0,0,0,1.16-.64,1.71,1.71,0,0,0,.36-1.121,1.817,1.817,0,0,0-.36-1.12,2.114,2.114,0,0,0-1.72-.72H67.081v.28h.32q.56,0,.56.72V69.34q0,.72-.56.72h-.32v.28h3.4a2.174,2.174,0,0,0,1.8-.8m-3.4-5.842a.53.53,0,0,1,.6-.6h.24a1.558,1.558,0,0,1,1.64,1.56,1.669,1.669,0,0,1-.28,1.041,1.364,1.364,0,0,1-1.08.52h-1.12Zm.6,6.362q-.6,0-.6-.72V66.579h.96a1.671,1.671,0,0,1,1.361.64,2.121,2.121,0,0,1,.08,2.361,1.685,1.685,0,0,1-1.361.48Z" transform="translate(958.381 -235.847)" fill="#e41749"/><path d="M92.949,67.62h-.24a3.494,3.494,0,0,1-.68,1.721,1.71,1.71,0,0,1-1.4.72h-.6q-.6,0-.6-.72V66.62h.76q.96,0,.96,1.28v.4h.24V64.58h-.24v.4q0,1.281-.96,1.281h-.76V63.819q0-.72.6-.72h.48a1.847,1.847,0,0,1,1.52.64,3.14,3.14,0,0,1,.6,1.56h.2l-.16-2.481H87.627v.28h.32q.56,0,.56.72v5.522q0,.72-.56.72h-.32v.28h5.082Z" transform="translate(945.021 -235.847)" fill="#e41749"/><path d="M72.051,28.089l-3.439,2.886h2.612Z" transform="translate(957.385 -213.265)" fill="#e41749"/><path d="M56.456,113.7l3.439-2.886H57.284Z" transform="translate(965.289 -267.057)" fill="#e41749"/><rect width="47.181" height="51.466" transform="translate(1002 -195)" fill="none"/></g></g></svg>